<svg width="28" height="28" viewBox="0 0 20 19" fill="none" xmlns="http://www.w3.org/2000/svg">
<path d="M14.9394 0.715088C16.2804 0.715088 17.5704 1.24509 18.5194 2.19609C19.4694 3.14509 20.0004 4.42509 20.0004 5.76509V13.6651C20.0004 16.4551 17.7304 18.7151 14.9394 18.7151H5.06037C2.26937 18.7151 0.000366211 16.4551 0.000366211 13.6651V5.76509C0.000366211 2.97509 2.25937 0.715088 5.06037 0.715088H14.9394ZM16.0704 5.91509C15.8604 5.90409 15.6604 5.97509 15.5094 6.11509L11.0004 9.71509C10.4204 10.1961 9.58937 10.1961 9.00037 9.71509L4.50037 6.11509C4.18937 5.88509 3.75937 5.91509 3.50037 6.18509C3.23037 6.45509 3.20037 6.88509 3.42937 7.18509L3.56037 7.31509L8.11037 10.8651C8.67037 11.3051 9.34937 11.5451 10.0604 11.5451C10.7694 11.5451 11.4604 11.3051 12.0194 10.8651L16.5304 7.25509L16.6104 7.17509C16.8494 6.88509 16.8494 6.46509 16.5994 6.17509C16.4604 6.02609 16.2694 5.93509 16.0704 5.91509Z" fill="#FE390C"/>
</svg>
