<svg width="15" height="12" viewBox="0 0 15 12" fill="none" xmlns="http://www.w3.org/2000/svg">
<path d="M14.6666 5.77137C14.6666 5.45496 14.4315 5.19346 14.1264 5.15208L14.0416 5.14637L3.05496 5.14687L7.02412 1.19393C7.26872 0.950379 7.26957 0.554652 7.02602 0.310049C6.80461 0.0876837 6.45743 0.0667639 6.21237 0.247782L6.14214 0.308146L1.10047 5.32815C1.06823 5.36025 1.04023 5.39499 1.01646 5.43169C1.00974 5.44273 1.00291 5.45403 0.996431 5.46555C0.990473 5.47543 0.985088 5.48569 0.980008 5.49607C0.972952 5.51116 0.966059 5.52675 0.9598 5.54266C0.954714 5.55492 0.950467 5.56685 0.946594 5.57888C0.94199 5.59379 0.937515 5.60968 0.933667 5.62581C0.930806 5.63708 0.92854 5.64792 0.926564 5.6588C0.923784 5.67499 0.921419 5.69175 0.919731 5.7087C0.918273 5.72164 0.917397 5.73445 0.916911 5.74727C0.916786 5.75505 0.916628 5.76319 0.916628 5.77137L0.916942 5.79558C0.91742 5.80785 0.918259 5.8201 0.919456 5.83233L0.916628 5.77137C0.916628 5.81081 0.920281 5.8494 0.927268 5.88681C0.928888 5.89575 0.930819 5.90492 0.932957 5.91406C0.937396 5.93287 0.942527 5.95099 0.948435 5.96875C0.951335 5.97758 0.954713 5.98701 0.958323 5.99637C0.965627 6.01517 0.973565 6.0331 0.982298 6.05056C0.986356 6.05877 0.990899 6.06737 0.995658 6.07588C1.00347 6.08976 1.01151 6.10295 1.02002 6.11581C1.02602 6.12491 1.03267 6.13438 1.03961 6.14371L1.04502 6.15091C1.06186 6.17291 1.08013 6.19376 1.09969 6.21331L1.10044 6.21389L6.1421 11.2347C6.38668 11.4783 6.78241 11.4775 7.02598 11.2329C7.24741 11.0105 7.26686 10.6633 7.08481 10.419L7.02415 10.349L3.05663 6.39687L14.0416 6.39637C14.3868 6.39637 14.6666 6.11655 14.6666 5.77137Z" fill="white"/>
</svg>
