<svg width="15" height="12" viewBox="0 0 15 12" fill="none" xmlns="http://www.w3.org/2000/svg">
<path d="M0.333374 5.77137C0.333374 5.45496 0.568502 5.19346 0.873565 5.15208L0.958374 5.14637L11.945 5.14687L7.97588 1.19393C7.73128 0.950379 7.73043 0.554652 7.97398 0.310049C8.19539 0.0876837 8.54257 0.0667639 8.78763 0.247782L8.85786 0.308146L13.8995 5.32815C13.9318 5.36025 13.9598 5.39499 13.9835 5.43169C13.9903 5.44273 13.9971 5.45403 14.0036 5.46555C14.0095 5.47543 14.0149 5.48569 14.02 5.49607C14.027 5.51116 14.0339 5.52675 14.0402 5.54266C14.0453 5.55492 14.0495 5.56685 14.0534 5.57888C14.058 5.59379 14.0625 5.60968 14.0663 5.62581C14.0692 5.63708 14.0715 5.64792 14.0734 5.6588C14.0762 5.67499 14.0786 5.69175 14.0803 5.7087C14.0817 5.72164 14.0826 5.73445 14.0831 5.74727C14.0832 5.75505 14.0834 5.76319 14.0834 5.77137L14.0831 5.79558C14.0826 5.80785 14.0817 5.8201 14.0805 5.83233L14.0834 5.77137C14.0834 5.81081 14.0797 5.8494 14.0727 5.88681C14.0711 5.89575 14.0692 5.90492 14.067 5.91406C14.0626 5.93287 14.0575 5.95099 14.0516 5.96875C14.0487 5.97758 14.0453 5.98701 14.0417 5.99637C14.0344 6.01517 14.0264 6.0331 14.0177 6.05056C14.0136 6.05877 14.0091 6.06737 14.0043 6.07588C13.9965 6.08976 13.9885 6.10295 13.98 6.11581C13.974 6.12491 13.9673 6.13438 13.9604 6.14371L13.955 6.15091C13.9381 6.17291 13.9199 6.19376 13.9003 6.21331L13.8996 6.21389L8.8579 11.2347C8.61332 11.4783 8.21759 11.4775 7.97402 11.2329C7.75259 11.0105 7.73314 10.6633 7.91519 10.419L7.97585 10.349L11.9434 6.39687L0.958374 6.39637C0.613196 6.39637 0.333374 6.11655 0.333374 5.77137Z" fill="white"/>
</svg>
